HIERARCHY
ROOT Hips
{
  OFFSET 0.849866 78.6569 -0.536788
  CHANNELS 6 Xposition Yposition Zposition Zrotation Xrotation Yrotation
  JOINT Bip01_Pelvis
  {
    OFFSET 0 0 0
    CHANNELS 6 Xposition Yposition Zposition Zrotation Xrotation Yrotation
    JOINT BN_Tail_01
    {
      OFFSET -5.52397 -0.332285 0
      CHANNELS 6 Xposition Yposition Zposition Zrotation Xrotation Yrotation
      JOINT BN_Tail_02
      {
        OFFSET 6.48885 -2.032e-005 0
        CHANNELS 6 Xposition Yposition Zposition Zrotation Xrotation Yrotation
        JOINT BN_Tail_03
        {
          OFFSET 7.08759 1.016e-005 -0.00261112
          CHANNELS 6 Xposition Yposition Zposition Zrotation Xrotation Yrotation
          End Site
          {
            OFFSET 0 0 0
          }
        }
      }
    }
    JOINT Bip01_Spine
    {
      OFFSET 4.02227 0.398968 0
      CHANNELS 6 Xposition Yposition Zposition Zrotation Xrotation Yrotation
      JOINT BN_UpperArm_R_01
      {
        OFFSET 4.84413 -3.22857 -3.65581
        CHANNELS 6 Xposition Yposition Zposition Zrotation Xrotation Yrotation
        JOINT BN_Forearm_R_01
        {
          OFFSET 8.51614 0 0
          CHANNELS 6 Xposition Yposition Zposition Zrotation Xrotation Yrotation
          JOINT BN_hand_R_01
          {
            OFFSET 10.1924 0 0
            CHANNELS 6 Xposition Yposition Zposition Zrotation Xrotation Yrotation
            JOINT BN_Finger_R_02
            {
              OFFSET 14.5949 -1.43855 0.585079
              CHANNELS 6 Xposition Yposition Zposition Zrotation Xrotation Yrotation
              End Site
              {
                OFFSET 0 0 0
              }
            }
            JOINT BN_Finger_R_01
            {
              OFFSET 14.4623 0 0
              CHANNELS 6 Xposition Yposition Zposition Zrotation Xrotation Yrotation
              End Site
              {
                OFFSET 0 0 0
              }
            }
          }
        }
      }
      JOINT BN_UpperArm_L_01
      {
        OFFSET 4.84412 -3.22858 3.65557
        CHANNELS 6 Xposition Yposition Zposition Zrotation Xrotation Yrotation
        JOINT BN_Forearm_L_01
        {
          OFFSET 8.51611 0 0
          CHANNELS 6 Xposition Yposition Zposition Zrotation Xrotation Yrotation
          JOINT BN_hand_L_01
          {
            OFFSET 10.1924 0 0
            CHANNELS 6 Xposition Yposition Zposition Zrotation Xrotation Yrotation
            JOINT BN_Finger_L_01
            {
              OFFSET 14.4623 0 0
              CHANNELS 6 Xposition Yposition Zposition Zrotation Xrotation Yrotation
              End Site
              {
                OFFSET 0 0 0
              }
            }
            JOINT BN_Finger_L_02
            {
              OFFSET 14.5949 1.43855 0.585071
              CHANNELS 6 Xposition Yposition Zposition Zrotation Xrotation Yrotation
              End Site
              {
                OFFSET 0 0 0
              }
            }
          }
        }
      }
      JOINT Bip01_R_Thigh
      {
        OFFSET -4.03411 -0.254132 -3.45377
        CHANNELS 6 Xposition Yposition Zposition Zrotation Xrotation Yrotation
        JOINT Bip01_R_Calf
        {
          OFFSET 3.92618 0 0
          CHANNELS 6 Xposition Yposition Zposition Zrotation Xrotation Yrotation
          JOINT Bip01_R_HorseLink
          {
            OFFSET 6.12319 0 0
            CHANNELS 6 Xposition Yposition Zposition Zrotation Xrotation Yrotation
            JOINT Bip01_R_Foot
            {
              OFFSET 9.94776 0 0
              CHANNELS 6 Xposition Yposition Zposition Zrotation Xrotation Yrotation
              JOINT Bip01_R_Toe3
              {
                OFFSET 0.881252 -0.110953 0.0158496
                CHANNELS 6 Xposition Yposition Zposition Zrotation Xrotation Yrotation
                JOINT Bip01_R_Toe31
                {
                  OFFSET 2.32137 0 0
                  CHANNELS 6 Xposition Yposition Zposition Zrotation Xrotation Yrotation
                  JOINT Bip01_R_Toe32
                  {
                    OFFSET 1.63293 0 0
                    CHANNELS 6 Xposition Yposition Zposition Zrotation Xrotation Yrotation
                    JOINT Bip01_R_Toe3Nub
                    {
                      OFFSET 1.72131 0 0
                      CHANNELS 6 Xposition Yposition Zposition Zrotation Xrotation Yrotation
                      End Site
                      {
                        OFFSET 0 0 0
                      }
                    }
                  }
                }
              }
              JOINT Bip01_R_Toe2
              {
                OFFSET 0.994751 0.967285 -1.09428
                CHANNELS 6 Xposition Yposition Zposition Zrotation Xrotation Yrotation
                JOINT Bip01_R_Toe21
                {
                  OFFSET 2.20201 0 0
                  CHANNELS 6 Xposition Yposition Zposition Zrotation Xrotation Yrotation
                  JOINT Bip01_R_Toe22
                  {
                    OFFSET 1.84925 0 0
                    CHANNELS 6 Xposition Yposition Zposition Zrotation Xrotation Yrotation
                    JOINT Bip01_R_Toe2Nub
                    {
                      OFFSET 1.70976 0 0
                      CHANNELS 6 Xposition Yposition Zposition Zrotation Xrotation Yrotation
                      End Site
                      {
                        OFFSET 0 0 0
                      }
                    }
                  }
                }
              }
              JOINT Bip01_R_Toe1
              {
                OFFSET 1.3748 1.34027 -0.0712419
                CHANNELS 6 Xposition Yposition Zposition Zrotation Xrotation Yrotation
                JOINT Bip01_R_Toe11
                {
                  OFFSET 2.26122 0 0
                  CHANNELS 6 Xposition Yposition Zposition Zrotation Xrotation Yrotation
                  JOINT Bip01_R_Toe12
                  {
                    OFFSET 2.22215 0 0
                    CHANNELS 6 Xposition Yposition Zposition Zrotation Xrotation Yrotation
                    JOINT Bip01_R_Toe1Nub
                    {
                      OFFSET 1.61867 0 0
                      CHANNELS 6 Xposition Yposition Zposition Zrotation Xrotation Yrotation
                      End Site
                      {
                        OFFSET 0 0 0
                      }
                    }
                  }
                }
              }
              JOINT Bip01_R_Toe0
              {
                OFFSET 1.40695 0.687986 0.883783
                CHANNELS 6 Xposition Yposition Zposition Zrotation Xrotation Yrotation
                JOINT Bip01_R_Toe01
                {
                  OFFSET 2.26828 0 0
                  CHANNELS 6 Xposition Yposition Zposition Zrotation Xrotation Yrotation
                  JOINT Bip01_R_Toe02
                  {
                    OFFSET 2.09769 0 0
                    CHANNELS 6 Xposition Yposition Zposition Zrotation Xrotation Yrotation
                    JOINT Bip01_R_Toe0Nub
                    {
                      OFFSET 1.53753 0 0
                      CHANNELS 6 Xposition Yposition Zposition Zrotation Xrotation Yrotation
                      End Site
                      {
                        OFFSET 0 0 0
                      }
                    }
                  }
                }
              }
            }
          }
        }
      }
      JOINT Bip01_L_Thigh
      {
        OFFSET -4.03411 -0.254147 3.45377
        CHANNELS 6 Xposition Yposition Zposition Zrotation Xrotation Yrotation
        JOINT Bip01_L_Calf
        {
          OFFSET 3.92616 0 0
          CHANNELS 6 Xposition Yposition Zposition Zrotation Xrotation Yrotation
          JOINT Bip01_L_HorseLink
          {
            OFFSET 6.1232 0 0
            CHANNELS 6 Xposition Yposition Zposition Zrotation Xrotation Yrotation
            JOINT Bip01_L_Foot
            {
              OFFSET 9.94775 0 0
              CHANNELS 6 Xposition Yposition Zposition Zrotation Xrotation Yrotation
              JOINT Bip01_L_Toe3
              {
                OFFSET 0.881246 -0.110986 -0.0157582
                CHANNELS 6 Xposition Yposition Zposition Zrotation Xrotation Yrotation
                JOINT Bip01_L_Toe31
                {
                  OFFSET 2.32136 0 0
                  CHANNELS 6 Xposition Yposition Zposition Zrotation Xrotation Yrotation
                  JOINT Bip01_L_Toe32
                  {
                    OFFSET 1.63293 0 0
                    CHANNELS 6 Xposition Yposition Zposition Zrotation Xrotation Yrotation
                    JOINT Bip01_L_Toe3Nub
                    {
                      OFFSET 1.7213 0 0
                      CHANNELS 6 Xposition Yposition Zposition Zrotation Xrotation Yrotation
                      End Site
                      {
                        OFFSET 0 0 0
                      }
                    }
                  }
                }
              }
              JOINT Bip01_L_Toe2
              {
                OFFSET 0.994649 0.967162 1.09447
                CHANNELS 6 Xposition Yposition Zposition Zrotation Xrotation Yrotation
                JOINT Bip01_L_Toe21
                {
                  OFFSET 2.202 0 0
                  CHANNELS 6 Xposition Yposition Zposition Zrotation Xrotation Yrotation
                  JOINT Bip01_L_Toe22
                  {
                    OFFSET 1.84926 0 0
                    CHANNELS 6 Xposition Yposition Zposition Zrotation Xrotation Yrotation
                    JOINT Bip01_L_Toe2Nub
                    {
                      OFFSET 1.70976 0 0
                      CHANNELS 6 Xposition Yposition Zposition Zrotation Xrotation Yrotation
                      End Site
                      {
                        OFFSET 0 0 0
                      }
                    }
                  }
                }
              }
              JOINT Bip01_L_Toe1
              {
                OFFSET 1.37483 1.34021 0.0715086
                CHANNELS 6 Xposition Yposition Zposition Zrotation Xrotation Yrotation
                JOINT Bip01_L_Toe11
                {
                  OFFSET 2.26124 0 0
                  CHANNELS 6 Xposition Yposition Zposition Zrotation Xrotation Yrotation
                  JOINT Bip01_L_Toe12
                  {
                    OFFSET 2.22214 0 0
                    CHANNELS 6 Xposition Yposition Zposition Zrotation Xrotation Yrotation
                    JOINT Bip01_L_Toe1Nub
                    {
                      OFFSET 1.61867 0 0
                      CHANNELS 6 Xposition Yposition Zposition Zrotation Xrotation Yrotation
                      End Site
                      {
                        OFFSET 0 0 0
                      }
                    }
                  }
                }
              }
              JOINT Bip01_L_Toe0
              {
                OFFSET 1.40707 0.688009 -0.883564
                CHANNELS 6 Xposition Yposition Zposition Zrotation Xrotation Yrotation
                JOINT Bip01_L_Toe01
                {
                  OFFSET 2.26828 0 0
                  CHANNELS 6 Xposition Yposition Zposition Zrotation Xrotation Yrotation
                  JOINT Bip01_L_Toe02
                  {
                    OFFSET 2.0977 0 0
                    CHANNELS 6 Xposition Yposition Zposition Zrotation Xrotation Yrotation
                    JOINT Bip01_L_Toe0Nub
                    {
                      OFFSET 1.53752 0 0
                      CHANNELS 6 Xposition Yposition Zposition Zrotation Xrotation Yrotation
                      End Site
                      {
                        OFFSET 0 0 0
                      }
                    }
                  }
                }
              }
            }
          }
        }
      }
      JOINT Bip01_Spine1
      {
        OFFSET 4.90674 -0.00437896 0
        CHANNELS 6 Xposition Yposition Zposition Zrotation Xrotation Yrotation
        JOINT Bip01_Neck
        {
          OFFSET 5.56447 -1.28357 0
          CHANNELS 6 Xposition Yposition Zposition Zrotation Xrotation Yrotation
          JOINT Bip01_Neck1
          {
            OFFSET 2.79308 -0.00219964 0
            CHANNELS 6 Xposition Yposition Zposition Zrotation Xrotation Yrotation
            JOINT Bip01_Head
            {
              OFFSET 2.79272 0 0
              CHANNELS 6 Xposition Yposition Zposition Zrotation Xrotation Yrotation
              JOINT BN_Mouth_01
              {
                OFFSET 4.19089 0.0665938 0
                CHANNELS 6 Xposition Yposition Zposition Zrotation Xrotation Yrotation
                End Site
                {
                  OFFSET 0 0 0
                }
              }
              JOINT Bip01_HeadNub
              {
                OFFSET 6.95118 0 0
                CHANNELS 6 Xposition Yposition Zposition Zrotation Xrotation Yrotation
                End Site
                {
                  OFFSET 0 0 0
                }
              }
            }
          }
        }
      }
    }
  }
}
MOTION
Frames:	3
Frame Time:	0.0333333
0.849866 91.44 -0.0617626 -176.546 -90 -90 0 0 0 -89.9989 6.70786 -89.9989 -5.52397 -0.332285 8.32667e-017 -14.8332 -0.000396726 -179.785 6.48885 -2.032e-005 5.55111e-017 0.639978 0.00105387 0.188844 7.08759 1.016e-005 -0.00261112 8.50592 0.00315332 0.231217 4.02227 0.398968 -6.93889e-017 10.6432 -6.16641e-013 -3.1997e-012 4.84413 -3.22857 -3.65581 -65.111 0.647073 128.347 8.51614 5.08001e-006 -2.84217e-014 14.6631 -4.57126 34.9525 10.1924 -2.54e-006 -1.06581e-014 -28.558 -6.11697 6.65501 14.5949 -1.43855 0.585079 -54.4696 0.804429 -41.676 14.4623 -7.10544e-015 -3.55271e-015 -3.5739 2.2271 -47.8978 4.84412 -3.22858 3.65557 110.879 -4.74562 -51.3203 8.51611 -5.68435e-014 -5.08e-006 -13.0439 8.45736 35.6721 10.1924 0 7.10542e-015 23.0863 7.27628 7.65189 14.4623 5.08001e-006 -3.37508e-014 6.78505 -0.837767 -44.083 14.5949 1.43855 0.585071 54.5827 -0.165648 -40.2352 -4.02688 0.351346 -3.45377 -127.866 1.11824 -175.695 3.92618 1.42109e-014 -8.88179e-016 -97.667 2.30342e-006 -1.71481e-005 6.12319 -5.08001e-006 -4.44089e-016 46.1098 6.94383e-006 -7.22325e-006 9.94776 2.54001e-006 -8.88179e-016 -17.7923 15.1938 7.32762 0.881251 -0.110953 0.0158496 141.059 -4.40061 178.904 2.32137 -5.08004e-006 2.66454e-015 15.6247 -0.00537693 -0.0133796 1.63293 -5.08005e-006 0 -56.924 -0.000259469 0.00781647 1.72131 5.08008e-006 -2.30926e-014 3.18056e-015 -3.18055e-015 -0 0.994751 0.967286 -1.09428 92.1603 -0.803527 27.4719 2.20201 5.08006e-006 0 -44.5558 -1.03625e-006 -9.98692e-007 1.84925 -2.54004e-006 -3.55271e-015 -58.8141 -9.2939e-006 -1.47837e-005 1.70975 -5.08011e-006 -2.84217e-014 1.73027e-005 1.0018e-005 -3.13205e-012 1.3748 1.34027 -0.0712419 86.2393 0.177304 -2.68636 2.26122 5.08006e-006 -3.55271e-015 -49.0181 -1.09063e-005 -1.30965e-005 2.22214 1.77638e-015 0 -60.5113 4.28433e-007 7.76212e-007 1.61866 -5.08011e-006 8.70415e-014 2.22639e-014 1.0018e-005 1.24042e-013 1.40695 0.687986 0.883783 99.2204 -5.70036 -31.4394 2.26828 2.8422e-014 2.54e-006 -53.7766 -8.66285e-006 -1.36096e-005 2.09768 -2.54004e-006 -2.54e-006 -80.7956 -1.60726e-006 -1.90927e-005 1.53752 -5.08013e-006 1.38556e-013 -3.18055e-015 1.0018e-005 -3.18055e-015 -4.02688 0.351336 3.45377 -115.486 -1.54413 174.138 3.92616 2.54e-006 -8.88178e-016 -87.6511 1.48828e-008 -2.72633e-010 6.1232 5.08002e-006 0 45.1613 -1.22014e-005 1.22799e-005 9.94775 -3.55273e-015 0 -14.5501 -16.5037 -6.13273 0.881247 -0.110986 -0.0157582 125.151 3.93958 -177.723 2.32136 5.08005e-006 0 -43.3716 8.15383e-006 6.88189e-006 1.63293 7.10552e-015 8.88178e-016 -44.8129 -6.95379e-006 7.49738e-006 1.72131 -3.55278e-015 -2.66453e-015 179.962 -0.00991006 0.00110351 0.99465 0.967161 1.09447 75.5834 9.18204 -26.0308 2.202 5.08005e-006 0 -15.6529 0.0124283 0.0122977 1.84927 2.54003e-006 2.54e-006 -98.013 -3.35904e-008 6.80748e-007 1.70976 0 -1.06581e-014 -179.962 -0.00180101 0.0101818 1.37483 1.34021 0.0715086 77.2895 -0.593437 2.62389 2.26124 -7.1055e-015 0 -26.1148 -0.00524234 -0.00840059 2.22215 2.54003e-006 1.06581e-014 -81.2832 1.36934e-006 1.01368e-005 1.61867 -5.0801e-006 -5.32907e-015 -179.961 0.00342769 -0.00698597 1.40707 0.688008 -0.883564 86.5849 -2.12141 31.8312 2.26828 5.08005e-006 1.06581e-014 -27.7474 1.80834e-006 1.67806e-006 2.09771 -7.10552e-015 -1.06581e-014 -83.2801 -1.76215e-006 1.1451e-005 1.53752 -5.08011e-006 2.54e-006 179.961 -0.00524604 0.000696729 4.90674 -0.00437896 0 4.21853 9.99078e-006 -7.36926e-007 5.56447 -1.28357 1.94289e-016 3.73564 -0.00672575 -0.206234 2.79308 -0.00219964 -1.38778e-017 9.1583 -0.0269302 -0.204833 2.79272 -2.84217e-014 1.38778e-017 23.1433 0.894018 1.26276 4.19089 0.0665938 -2.29431e-011 -157.825 -0.0539856 -179.989 6.95118 0 1.11022e-016 1.31974e-014 9.93923e-017 1.98785e-016 
0.849866 92.1599 -0.0359687 -176.546 -90 -90 0 0 0 -89.9989 6.70786 -89.9989 -5.52397 -0.332285 6.93889e-017 -14.8042 -0.0225674 -179.701 6.48885 -2.032e-005 0 1.00197 0.00421876 0.301574 7.08759 1.016e-005 -0.00261112 11.6575 0.0289509 0.294142 4.02227 0.398968 -7.63278e-017 9.73148 -5.64877e-013 -3.20675e-012 4.84413 -3.22857 -3.65581 -67.5728 -2.26074 128.836 8.51614 5.08001e-006 0 15.5744 -6.47546 40.3359 10.1924 -2.54e-006 -7.10542e-015 -29.9362 -5.51742 10.5094 14.5949 -1.43855 0.585079 -54.3218 1.51807 -38.0753 14.4623 -7.10544e-015 5.32907e-015 -4.01637 2.99436 -43.4046 4.84412 -3.22858 3.65557 108.19 -7.68449 -51.1778 8.51611 -9.23707e-014 -5.08e-006 -13.4286 9.82857 40.4595 10.1924 7.10544e-015 3.55271e-015 25.8436 7.35357 11.1934 14.4623 5.08001e-006 -1.42108e-014 7.42015 -1.0151 -40.8454 14.5949 1.43855 0.585071 54.2536 -0.778048 -36.8269 -4.03185 0.287026 -3.45377 -127.171 1.04677 -175.654 3.92618 0 0 -99.1815 2.75579e-006 -1.70811e-005 6.12319 -5.08001e-006 -1.77636e-015 46.309 6.91858e-006 -7.24738e-006 9.94776 2.54001e-006 1.77636e-015 -15.9732 15.2968 7.07313 0.881251 -0.110953 0.0158496 141.288 -4.41254 178.909 2.32137 -5.08004e-006 3.55271e-015 15.6229 -0.00377991 -0.00767019 1.63294 -5.08005e-006 0 -56.8101 0.0172179 -0.00360529 1.72131 5.08008e-006 -2.22045e-014 5.96354e-016 -6.36111e-015 7.95139e-016 0.994751 0.967286 -1.09428 92.2834 -0.741926 27.4736 2.20201 5.08006e-006 -1.77636e-015 -43.7641 -0.0172848 0.0180448 1.84925 -2.54004e-006 -7.10542e-015 -58.7351 -9.31205e-006 -1.47704e-005 1.70975 -5.08011e-006 -1.95399e-014 1.73027e-005 1.0018e-005 -3.1249e-012 1.3748 1.34027 -0.0712419 86.4216 0.168081 -2.68696 2.26122 5.08006e-006 -3.55271e-015 -48.5071 -0.0186425 0.0164666 2.22214 -6.21734e-015 1.77636e-015 -60.3826 -0.00132555 0.000754507 1.61866 -5.0801e-006 8.17124e-014 -5.24792e-014 1.0018e-005 1.00187e-013 1.40695 0.687986 0.883783 99.3416 -5.77119 -31.4278 2.26828 0 2.54e-006 -53.3511 -0.00118677 0.000862862 2.09769 -2.54004e-006 -2.54e-006 -80.607 0.000419787 -8.87511e-005 1.53752 -5.08012e-006 1.35003e-013 1.59028e-014 1.0018e-005 2.8625e-014 -4.03185 0.287006 3.45377 -114.325 -1.0088 174.43 3.92616 2.54e-006 1.77636e-015 -87.8604 1.26458e-008 -7.8435e-011 6.1232 5.08002e-006 -3.10862e-015 44.5423 -1.23345e-005 1.21457e-005 9.94775 0 0 -12.2312 -16.0684 -5.48032 0.881247 -0.110986 -0.0157582 124.815 3.92126 -177.713 2.32136 5.08004e-006 1.77636e-015 -43.4955 7.15359e-006 7.91346e-006 1.63293 7.10552e-015 0 -45.4477 -7.01192e-006 7.43885e-006 1.72131 1.15465e-014 4.44089e-015 179.962 -0.00991006 0.00110351 0.99465 0.967161 1.09447 75.0429 9.44206 -25.9433 2.202 5.08005e-006 -3.55271e-015 -16.2814 0.0146696 0.00429512 1.84927 2.54003e-006 2.54e-006 -97.3299 -1.02592e-006 5.6336e-007 1.70976 -4.26334e-014 0 -179.962 -0.00180101 0.0101818 1.37483 1.34021 0.0715086 76.7659 -0.615327 2.61885 2.26124 7.1055e-015 -8.88178e-016 -26.7652 -0.00750443 -0.00378494 2.22215 2.54003e-006 1.06581e-014 -80.3948 1.67218e-006 1.00906e-005 1.61867 -5.0801e-006 -2.66453e-015 -179.961 0.00342769 -0.00698597 1.40707 0.688008 -0.883564 86.134 -2.40032 31.8134 2.26828 5.08005e-006 1.42108e-014 -28.5002 -3.0565e-006 1.05259e-005 2.09771 2.13166e-014 -1.06581e-014 -82.8141 -1.04814e-005 1.26289e-005 1.53752 -5.08011e-006 2.54e-006 179.961 -0.00524604 0.000696729 4.90674 -0.00437896 6.93889e-018 4.33238 9.98929e-006 -7.56776e-007 5.56447 -1.28357 -1.52656e-016 3.49093 -0.00218999 -0.146349 2.79308 -0.00219964 2.08167e-017 9.91828 -0.0186941 -0.141832 2.79272 0 -1.38778e-017 24.0602 0.784618 1.05278 4.19089 0.0665938 -2.13535e-011 -158.23 -0.0457306 -179.999 6.95118 -1.42109e-014 3.33067e-016 -1.05169e-014 -9.93923e-017 -1.98785e-016 
0.849866 92.7063 -0.0167005 -176.546 -90 -90 0 0 0 -89.9989 6.70786 -89.9989 -5.52397 -0.332285 5.89806e-017 -14.6347 -0.0453786 -179.61 6.48885 -2.032e-005 2.77556e-017 1.18203 0.00695149 0.388068 7.08759 1.016e-005 -0.00261112 15.0985 0.0730709 0.390159 4.02227 0.398968 -7.28584e-017 8.43227 -4.79648e-013 -3.20665e-012 4.84413 -3.22857 -3.65581 -69.9155 -6.44463 129.207 8.51614 5.08001e-006 1.42109e-014 17.0694 -8.3087 46.0661 10.1924 -2.54e-006 -5.32907e-015 -31.5327 -4.73939 15.2113 14.5949 -1.43855 0.585079 -54.2994 2.44926 -33.0241 14.4623 7.10544e-015 1.77636e-015 -4.88574 4.02447 -37.2855 4.84412 -3.22858 3.65557 105.382 -11.7376 -51.1485 8.51611 -1.38556e-013 -5.08e-006 -14.0767 10.8163 45.3934 10.1924 -7.10544e-015 0 29.3875 7.32549 15.4028 14.4623 5.08001e-006 1.06581e-014 8.05769 -1.20244 -36.6904 14.5949 1.43855 0.585071 54.0486 -1.51533 -32.103 -4.03729 0.195773 -3.45377 -126.098 0.963944 -175.632 3.92618 7.10544e-015 0 -101.298 3.38496e-006 -1.69675e-005 6.12319 -5.08001e-006 8.88179e-016 46.8443 6.85043e-006 -7.31168e-006 9.94776 2.54001e-006 -1.77636e-015 -13.857 15.3785 6.80422 0.881251 -0.110953 0.0158496 141.935 -4.44103 178.956 2.32137 -5.08004e-006 3.55271e-015 15.6211 -0.00221267 -0.00206594 1.63294 -5.08005e-006 0 -56.5583 0.00353163 0.0053472 1.72131 5.08008e-006 -2.4869e-014 -2.5842e-015 -3.18055e-015 -7.95139e-016 0.994751 0.967286 -1.09428 92.6171 -0.569555 27.4775 2.20201 5.08006e-006 -5.32907e-015 -41.5669 -0.000524126 0.00058886 1.84925 -2.54004e-006 1.77636e-015 -58.6576 -9.75953e-006 -1.44952e-005 1.70975 -5.08011e-006 -3.19744e-014 1.73027e-005 1.0018e-005 -3.10502e-012 1.3748 1.34027 -0.0712419 86.9307 0.153885 -2.68782 2.26122 5.08006e-006 -3.55271e-015 -46.9243 0.00397274 -0.00373763 2.22214 -1.77638e-015 -8.88178e-016 -60.2564 -0.0026254 0.00150096 1.61866 -5.0801e-006 7.63834e-014 4.96961e-014 1.0018e-005 1.31993e-013 1.40695 0.687986 0.883783 99.6951 -5.98174 -31.3923 2.26828 -2.8422e-014 2.54e-006 -51.9255 -9.89088e-006 -1.27554e-005 2.09769 -2.54004e-006 -2.54e-006 -80.1039 0.00262614 -0.000477326 1.53752 -5.08012e-006 1.52767e-013 4.77084e-015 1.0018e-005 -5.08889e-014 -4.0373 0.195763 3.45377 -111.661 -0.446347 174.946 3.92616 2.54e-006 0 -86.4597 9.39994e-009 -9.25464e-012 6.1232 5.08002e-006 4.44089e-016 43.5449 -1.25446e-005 1.19268e-005 9.94775 3.55273e-015 -4.44089e-016 -9.90283 -15.3723 -4.68374 0.881247 -0.110986 -0.0157582 123.85 3.94148 -177.615 2.32136 5.08004e-006 1.77636e-015 -43.8425 8.03977e-006 6.94235e-006 1.63293 7.10552e-015 8.88178e-016 -47.2218 -7.17562e-006 7.2532e-006 1.72131 -2.66458e-015 8.88178e-016 179.962 -0.00991006 0.00110351 0.99465 0.967161 1.09447 73.5052 10.175 -25.6814 2.202 5.08005e-006 -3.55271e-015 -18.0605 0.0145318 0.00474017 1.84927 2.54003e-006 2.54e-006 -95.4235 -8.52726e-008 7.12807e-007 1.70976 0 -5.32907e-015 -179.962 -0.00180101 0.0101818 1.37483 1.34021 0.0715086 75.2989 -0.68235 2.6022 2.26124 -1.4211e-014 -8.88178e-016 -28.5984 -0.00737975 -0.00402264 2.22215 2.54003e-006 8.88178e-015 -77.8877 1.9072e-006 1.00544e-005 1.61867 -5.0801e-006 -2.66453e-015 -179.961 0.00342769 -0.00698597 1.40707 0.688008 -0.883564 84.8562 -3.19041 31.7511 2.26828 5.08005e-006 7.10542e-015 -30.6168 1.22146e-006 2.28646e-006 2.09771 3.55276e-015 -3.55271e-015 -81.5139 -2.11895e-006 1.18243e-005 1.53752 -5.08011e-006 2.54e-006 179.961 -0.00524604 0.000696729 4.90674 -0.00437896 0 4.5195 9.98677e-006 -7.89395e-007 5.56447 -1.28357 -7.28584e-017 3.15836 0.00322198 -0.0636757 2.79308 -0.00219964 0 10.8258 -0.0053949 -0.0602364 2.79272 1.42109e-014 -6.93889e-018 25.1607 0.622841 0.783743 4.19089 0.0665938 -1.91297e-011 -158.627 -0.0375519 179.992 6.95118 -1.42109e-014 5.55111e-017 -7.34727e-015 0 -0 
